<?xml version="1.0" encoding="UTF-8"?>
<svg width="18px" height="18px" viewBox="0 0 18 18" version="1.1" xmlns="http://www.w3.org/2000/svg" xmlns:xlink="http://www.w3.org/1999/xlink">
    <!-- Generator: Sketch 50.2 (55047) - http://www.bohemiancoding.com/sketch -->
    <title>searchicon</title>
    <desc>Created with Sketch.</desc>
    <defs></defs>
    <g id="Design" stroke="none" stroke-width="1" fill="none" fill-rule="evenodd">
        <g id="Artboard" transform="translate(-3357.000000, -2069.000000)" fill="#000000">
            <path d="M3369.502,2075.67989 L3368.708,2075.67989 L3368.432,2075.96187 C3369.407,2077.13195 3370,2078.64885 3370,2080.31085 C3370,2084.00532 3367.09,2087 3363.5,2087 C3359.91,2087 3357,2084.00532 3357,2080.31085 C3357,2076.61637 3359.91,2073.62169 3363.5,2073.62169 C3365.115,2073.62169 3366.588,2074.23092 3367.725,2075.23326 L3368.001,2074.95129 L3368.001,2074.13624 L3372.999,2069 L3374.49,2070.53439 L3369.502,2075.67989 L3369.502,2075.67989 Z M3363.5,2075.67989 C3361.014,2075.67989 3359,2077.7525 3359,2080.31085 C3359,2082.86816 3361.014,2084.9418 3363.5,2084.9418 C3365.985,2084.9418 3368,2082.86816 3368,2080.31085 C3368,2077.7525 3365.985,2075.67989 3363.5,2075.67989 L3363.5,2075.67989 Z" id="searchicon" transform="translate(3365.745000, 2078.000000) scale(1, -1) translate(-3365.745000, -2078.000000) "></path>
        </g>
    </g>
</svg>