<?xml version="1.0" encoding="UTF-8"?>
<svg width="18px" height="18px" viewBox="0 0 18 18" version="1.1" xmlns="http://www.w3.org/2000/svg" xmlns:xlink="http://www.w3.org/1999/xlink">
    <!-- Generator: Sketch 50.2 (55047) - http://www.bohemiancoding.com/sketch -->
    <title>Shape</title>
    <desc>Created with Sketch.</desc>
    <defs></defs>
    <g id="Design" stroke="none" stroke-width="1" fill="none" fill-rule="evenodd">
        <g id="Artboard" transform="translate(-2279.000000, -1702.000000)" fill="#000000" fill-rule="nonzero">
            <path d="M2296.6625,1702.3375 C2296.2125,1701.8875 2295.5375,1701.8875 2295.0875,1702.3375 L2288,1709.425 L2280.9125,1702.3375 C2280.4625,1701.8875 2279.7875,1701.8875 2279.3375,1702.3375 C2278.8875,1702.7875 2278.8875,1703.4625 2279.3375,1703.9125 L2286.425,1711 L2279.3375,1718.0875 C2278.8875,1718.5375 2278.8875,1719.2125 2279.3375,1719.6625 C2279.5625,1719.8875 2279.7875,1720 2280.125,1720 C2280.4625,1720 2280.6875,1719.8875 2280.9125,1719.6625 L2288,1712.575 L2295.0875,1719.6625 C2295.3125,1719.8875 2295.65,1720 2295.875,1720 C2296.1,1720 2296.4375,1719.8875 2296.6625,1719.6625 C2297.1125,1719.2125 2297.1125,1718.5375 2296.6625,1718.0875 L2289.575,1711 L2296.6625,1703.9125 C2297.1125,1703.4625 2297.1125,1702.7875 2296.6625,1702.3375 Z" id="Shape"></path>
        </g>
    </g>
</svg>